<?xml version="1.0" standalone="no"?>
<!DOCTYPE svg PUBLIC "-//W3C//DTD SVG 20010904//EN"
 "http://www.w3.org/TR/2001/REC-SVG-20010904/DTD/svg10.dtd">
<svg version="1.0" xmlns="http://www.w3.org/2000/svg"
 width="128.000000pt" height="128.000000pt" viewBox="0 0 128.000000 128.000000"
 preserveAspectRatio="xMidYMid meet">
<metadata>
Created by potrace 1.16, written by Peter Selinger 2001-2019
</metadata>
<g transform="translate(0.000000,128.000000) scale(0.100000,-0.100000)"
fill="#000000" stroke="none">
<path d="M20 467 c0 -26 38 -113 76 -172 17 -27 67 -84 110 -125 127 -121 252
-170 434 -170 182 0 307 49 434 170 83 79 127 141 165 228 39 92 55 87 -262
87 l-277 0 0 -70 c0 -42 -5 -76 -12 -83 -18 -18 -95 -15 -102 4 -3 9 -6 45 -6
80 0 44 -4 64 -12 65 -7 1 -133 2 -280 3 -253 1 -268 0 -268 -17z"/>
</g>
</svg>
