<?xml version="1.0" standalone="no"?>
<!DOCTYPE svg PUBLIC "-//W3C//DTD SVG 20010904//EN"
 "http://www.w3.org/TR/2001/REC-SVG-20010904/DTD/svg10.dtd">
<svg version="1.0" xmlns="http://www.w3.org/2000/svg"
 width="128.000000pt" height="128.000000pt" viewBox="0 0 128.000000 128.000000"
 preserveAspectRatio="xMidYMid meet">
<metadata>
Created by potrace 1.16, written by Peter Selinger 2001-2019
</metadata>
<g transform="translate(0.000000,128.000000) scale(0.100000,-0.100000)"
fill="#000000" stroke="none">
<path d="M470 1264 c-216 -56 -401 -245 -456 -464 -23 -93 -15 -291 16 -379
51 -142 179 -288 313 -355 99 -49 173 -66 292 -66 124 0 209 20 294 67 58 32
77 37 156 42 81 5 90 8 90 26 0 17 -8 20 -53 23 l-53 3 54 59 c58 64 104 150
133 246 14 43 18 91 18 179 -1 104 -4 131 -28 202 -16 45 -44 105 -62 133 -19
29 -34 54 -34 56 0 2 25 4 56 4 52 0 55 1 52 23 -3 20 -9 22 -83 25 -76 3 -82
5 -115 37 -19 18 -62 50 -94 69 l-60 36 115 0 c119 0 146 7 136 34 -6 14 -41
16 -319 15 -238 0 -326 -4 -368 -15z m305 -48 l50 -14 -75 5 c-181 13 -340
-45 -464 -171 -121 -121 -169 -241 -169 -416 1 -173 54 -298 180 -422 32 -32
87 -73 123 -93 86 -46 53 -45 -41 2 -54 26 -96 58 -155 117 -122 123 -174 246
-174 416 0 170 52 293 174 416 87 86 170 136 269 160 70 17 221 17 282 0z
m-189 -292 c39 -19 74 -70 74 -109 0 -17 9 -34 24 -46 14 -11 28 -28 31 -39 4
-11 15 -20 26 -20 31 0 59 -19 69 -46 6 -16 17 -24 33 -24 33 0 71 -42 62 -69
-13 -43 -46 -36 -178 38 -105 60 -130 70 -156 65 -30 -6 -30 -7 -13 -20 35
-24 43 -64 40 -199 l-3 -130 -100 0 -100 0 -8 55 c-4 30 -7 91 -5 135 2 64 8
86 26 113 13 17 32 32 43 32 26 0 24 6 -16 41 -123 108 2 293 151 223z"/>
</g>
</svg>
