<?xml version="1.0" standalone="no"?>
<!DOCTYPE svg PUBLIC "-//W3C//DTD SVG 20010904//EN"
 "http://www.w3.org/TR/2001/REC-SVG-20010904/DTD/svg10.dtd">
<svg version="1.0" xmlns="http://www.w3.org/2000/svg"
 width="200.000000pt" height="200.000000pt" viewBox="0 0 200.000000 200.000000"
 preserveAspectRatio="xMidYMid meet">
<metadata>
Created by potrace 1.16, written by Peter Selinger 2001-2019
</metadata>
<g transform="translate(0.000000,200.000000) scale(0.100000,-0.100000)"
fill="#000000" stroke="none">
<path d="M135 1941 c-52 -24 -93 -66 -116 -119 -18 -41 -19 -84 -19 -822 l0
-778 28 -53 c22 -42 40 -61 82 -87 l55 -32 840 2 841 3 49 35 c29 21 58 53 72
80 l22 45 1 790 c0 778 0 791 -21 830 -26 52 -79 99 -127 113 -29 9 -262 12
-853 12 -768 0 -816 -1 -854 -19z m843 -136 c154 -36 178 -71 168 -236 -7
-116 0 -138 47 -140 12 -1 76 -3 142 -4 173 -5 375 -59 362 -98 -8 -24 -68
-55 -160 -80 -183 -51 -353 -149 -476 -276 -126 -130 -169 -202 -196 -330 -19
-89 -37 -132 -75 -181 -73 -92 -188 -130 -395 -130 -180 0 -191 11 -127 130
29 55 41 70 57 68 15 -2 22 -14 28 -49 l9 -47 36 10 c65 18 107 45 165 107 49
53 117 169 117 199 0 6 -33 22 -72 37 -104 39 -131 58 -200 139 -53 60 -59 72
-42 75 42 8 314 100 353 120 53 28 120 88 132 119 5 14 19 79 30 146 11 66 22
135 25 151 4 23 -5 48 -40 110 -25 44 -46 84 -47 90 0 5 -2 18 -4 28 -5 28 30
57 68 57 17 0 60 -7 95 -15z m377 -1107 c51 -8 113 -29 268 -90 88 -34 148
-119 155 -218 7 -104 -33 -143 -107 -104 -127 66 -328 191 -379 235 -71 61
-159 111 -244 137 -51 16 -94 34 -96 40 -7 22 275 22 403 0z"/>
</g>
</svg>
